# xmcd CD database file
#
# Track frame offsets:
#	150
#	25824
#	41809
#	55781
#	74841
#	99385
#	117344
#	136552
#	155252
#	166450
#	182248
#	208869
#	229194
#	246354
#	264356
#	280530
#	300415
#	316923
#
# Disc length: 4603 seconds
#
# Revision: 2
# Processed by: cddbd v1.5.1PL2 Copyright (c) Steve Scherf et al.
# Submitted via: Feurio! 1.68 - http://www.feurio.com
#
DISCID=f811f912
DTITLE=Bernd Haake und die Delta Blues Band - Ungewöhnlich gewöhnlich Leben 
DTITLE=Pur und Direkt
DYEAR=1900
DGENRE=Deutscher Blues
TTITLE0=Delta Blues Band - Blues vom Blues
TTITLE1=Delta Blues Band - Was soll's  - Ein Blues -
TTITLE2=Delta Blues Band - Ungewöhnlich gewöhnlich
TTITLE3=Delta Blues Band - Funky City Blues
TTITLE4=Delta Blues Band - Amerika Blues
TTITLE5=Delta Blues Band - Ruf' die Firma an
TTITLE6=Delta Blues Band - Miese Zeiten
TTITLE7=Delta Blues Band - Dampfwalze
TTITLE8=Delta Blues Band - Kein Mensch geht hin
TTITLE9=Delta Blues Band - Hey, Mädchen
TTITLE10=Delta Blues Band - Houston, Texas
TTITLE11=Delta Blues Band - Mama's Blues
TTITLE12=Delta Blues Band - Blaues Blut
TTITLE13=Delta Blues Band - Rote Ratte
TTITLE14=Delta Blues Band - Leben, Pur und Direkt
TTITLE15=Delta Blues Band - Guten Morgen, Alkohol
TTITLE16=Delta Blues Band - Was Lacostet die Welt
TTITLE17=Delta Blues Band - Blues vom Blues ( Teil 2 )
EXTD=
EXTT0=
EXTT1=
EXTT2=
EXTT3=
EXTT4=
EXTT5=
EXTT6=
EXTT7=
EXTT8=
EXTT9=
EXTT10=
EXTT11=
EXTT12=
EXTT13=
EXTT14=
EXTT15=
EXTT16=
EXTT17=
PLAYORDER=
